<svg width="94" height="95" viewBox="0 0 94 95" fill="none" xmlns="http://www.w3.org/2000/svg">
<path d="M84.6382 75.4738L84.7833 75.2964C85.5412 74.2643 86.2669 73.2 86.9443 72.0711C87.041 71.926 87.1378 71.7809 87.2184 71.6357C87.8312 70.6036 88.4117 69.5554 88.9439 68.4105C89.0891 68.1363 89.2181 67.8783 89.3471 67.588C89.8309 66.6043 90.2824 65.6206 90.6694 64.6046C90.8468 64.1853 90.9758 63.7661 91.1371 63.3306C91.4758 62.4276 91.7983 61.5084 92.0724 60.573C92.2498 59.9764 92.395 59.3797 92.5401 58.7669C92.6852 58.1541 92.9594 57.1542 93.1368 56.3318C93.3142 55.5093 93.3948 54.6385 93.5077 53.7838C93.6206 52.9291 93.7173 52.526 93.7818 51.897C93.927 50.2844 94.0076 48.833 94.0076 47.2849C94.0087 45.696 93.9279 44.1082 93.7657 42.5276C93.7657 41.7213 93.5399 40.915 93.4109 40.1732C93.2819 39.4313 93.2174 38.6734 93.0723 37.9477C92.8626 36.8672 92.5562 35.8029 92.266 34.7224C92.1692 34.3354 92.0886 33.9161 91.9596 33.513C91.5725 32.2712 91.1371 31.0617 90.6533 29.8523C90.6533 29.6588 90.5082 29.4814 90.4275 29.304C89.8792 27.9816 89.2664 26.6754 88.6053 25.4014V25.2724C86.474 21.4062 83.8205 17.8519 80.7195 14.7096L57.6104 38.6411L82.0741 78.6346C82.9826 77.6258 83.8384 76.5708 84.6382 75.4738Z" fill="white"/>
<path d="M42.6118 53.7356L31.2266 65.6691V91.6326C32.3877 92.068 33.5649 92.4228 34.7744 92.7453L35.3388 92.9066C36.4031 93.1646 37.4675 93.4226 38.5641 93.6161L40.1767 93.858C40.9992 93.9871 41.7893 94.1161 42.644 94.1967C44.0954 94.3257 45.5307 94.4225 47.0143 94.4225C48.4979 94.4225 49.917 94.3257 51.3362 94.1967C52.0457 94.1967 52.7553 94.0193 53.4487 93.9225C54.1422 93.8258 54.7227 93.7613 55.3678 93.6323C56.3031 93.471 57.2223 93.2614 58.1415 93.0356L59.0446 92.8098C60.125 92.5034 61.1894 92.2132 62.2699 91.8422L42.6118 53.7356Z" fill="white"/>
<path d="M9.18226 19.5306C8.45657 20.5143 7.77926 21.5142 7.13421 22.5463C5.36358 25.3999 3.89873 28.4323 2.76396 31.5932C2.63495 31.948 2.48981 32.2866 2.37692 32.6575C2.13503 33.3832 1.92539 34.125 1.73187 34.8668C1.53836 35.6086 1.37709 36.2053 1.21583 36.8826C1.05456 37.5599 0.925554 38.1727 0.812669 38.8178C0.699784 39.4629 0.522391 40.5594 0.39338 41.4625C0.39338 41.9786 0.264374 42.4785 0.215995 43.0752C-0.085019 45.9809 -0.085019 48.9099 0.215995 51.8157C0.215995 52.3317 0.345 52.8478 0.39338 53.4283C0.522391 54.3153 0.651405 55.2022 0.812669 56.073C0.973933 56.9439 1.05456 57.3631 1.21583 57.9921C1.37709 58.621 1.53836 59.3467 1.73187 60.024C1.92539 60.7013 2.13503 61.5076 2.37692 62.2333C2.48981 62.5881 2.63495 62.9267 2.76396 63.2815C3.89546 66.4488 5.36044 69.4869 7.13421 72.3446C7.79539 73.3766 8.4727 74.3765 9.19839 75.3441L9.18226 19.5306Z" fill="white"/>
<path d="M31.2266 38.6895L62.0763 2.88888C61.0765 2.55023 60.0444 2.25996 59.0123 1.98581C58.6737 1.88905 58.3189 1.79229 57.9641 1.72779C57.1094 1.50202 56.2225 1.3085 55.3355 1.16336C54.4486 1.01822 53.997 0.953719 53.3036 0.840834C52.6102 0.727949 51.9812 0.663444 51.3039 0.598938C49.8848 0.469927 48.4657 0.373169 46.982 0.373169C45.4984 0.373169 44.0632 0.469927 42.6118 0.598938C41.7894 0.598938 40.9991 0.808581 40.1445 0.921466L38.5318 1.16336C37.4513 1.373 36.387 1.6149 35.3065 1.88905L34.7744 1.98581C33.5649 2.30834 32.3877 2.67924 31.2266 3.0824V38.6895Z" fill="white"/>
</svg>
