<svg width="230" height="47" viewBox="0 0 230 47" fill="none" xmlns="http://www.w3.org/2000/svg">
<path d="M42.4031 36.8858L42.4742 36.7988C42.8458 36.2929 43.2015 35.7711 43.5335 35.2178C43.581 35.1466 43.6284 35.0755 43.6679 35.0043C43.9683 34.4984 44.2529 33.9845 44.5138 33.4233C44.5849 33.2889 44.6482 33.1624 44.7114 33.0201C44.9486 32.5379 45.1699 32.0557 45.3597 31.5576C45.4466 31.3521 45.5099 31.1465 45.5889 30.9331C45.7549 30.4904 45.913 30.0398 46.0474 29.5813C46.1344 29.2888 46.2055 28.9963 46.2767 28.6959C46.3478 28.3955 46.4822 27.9054 46.5692 27.5022C46.6561 27.099 46.6957 26.6721 46.751 26.2532C46.8063 25.8342 46.8538 25.6366 46.8854 25.3282C46.9565 24.5377 46.9961 23.8262 46.9961 23.0673C46.9966 22.2885 46.957 21.5101 46.8775 20.7353C46.8775 20.34 46.7668 19.9447 46.7036 19.5811C46.6403 19.2175 46.6087 18.8459 46.5376 18.4902C46.4348 17.9605 46.2846 17.4388 46.1423 16.9091C46.0949 16.7194 46.0553 16.5138 45.9921 16.3162C45.8024 15.7075 45.5889 15.1146 45.3518 14.5217C45.3518 14.4268 45.2806 14.3399 45.2411 14.2529C44.9723 13.6047 44.6719 12.9644 44.3478 12.3398V12.2766C43.303 10.3814 42.0022 8.639 40.4821 7.09863L29.1538 18.8301L41.1461 38.4352C41.5915 37.9407 42.011 37.4235 42.4031 36.8858Z" fill="white"/>
<path d="M21.8018 26.2295L16.2207 32.0794V44.8069C16.7899 45.0204 17.367 45.1943 17.9599 45.3524L18.2366 45.4315C18.7583 45.5579 19.2801 45.6844 19.8176 45.7793L20.6081 45.8979C21.0113 45.9611 21.3987 46.0244 21.8177 46.0639C22.5291 46.1271 23.2327 46.1746 23.96 46.1746C24.6873 46.1746 25.3829 46.1271 26.0786 46.0639C26.4264 46.0639 26.7743 45.9769 27.1142 45.9295C27.4541 45.8821 27.7387 45.8504 28.0549 45.7872C28.5134 45.7081 28.964 45.6054 29.4146 45.4947L29.8573 45.384C30.387 45.2338 30.9087 45.0915 31.4384 44.9097L21.8018 26.2295Z" fill="white"/>
<path d="M5.41422 9.46216C5.05848 9.94438 4.72645 10.4345 4.41024 10.9404C3.54226 12.3393 2.82418 13.8259 2.26791 15.3753C2.20467 15.5492 2.13352 15.7152 2.07818 15.8971C1.9596 16.2528 1.85683 16.6164 1.76197 16.9801C1.66711 17.3437 1.58805 17.6362 1.509 17.9683C1.42995 18.3003 1.3667 18.6007 1.31137 18.9169C1.25603 19.2331 1.16907 19.7707 1.10583 20.2134C1.10583 20.4663 1.04259 20.7114 1.01887 21.0039C0.871313 22.4283 0.871313 23.8641 1.01887 25.2886C1.01887 25.5415 1.08211 25.7945 1.10583 26.0791C1.16907 26.5139 1.23231 26.9487 1.31137 27.3756C1.39042 27.8024 1.42995 28.008 1.509 28.3163C1.58805 28.6246 1.66711 28.9803 1.76197 29.3124C1.85683 29.6444 1.9596 30.0396 2.07818 30.3954C2.13352 30.5693 2.20467 30.7353 2.26791 30.9092C2.82258 32.4619 3.54072 33.9512 4.41024 35.352C4.73436 35.8579 5.06638 36.3481 5.42212 36.8224L5.41422 9.46216Z" fill="white"/>
<path d="M16.2207 18.8538L31.3435 1.30403C30.8534 1.13802 30.3475 0.99572 29.8415 0.86133C29.6755 0.813899 29.5016 0.766467 29.3277 0.734846C28.9087 0.624171 28.4739 0.529308 28.0391 0.45816C27.6043 0.387013 27.383 0.355391 27.0431 0.300054C26.7031 0.244717 26.3948 0.213096 26.0628 0.181475C25.3671 0.118233 24.6715 0.0708008 23.9442 0.0708008C23.2169 0.0708008 22.5133 0.118233 21.8018 0.181475C21.3987 0.181475 21.0113 0.284244 20.5923 0.339581L19.8018 0.45816C19.2721 0.560929 18.7504 0.679509 18.2207 0.813899L17.9599 0.86133C17.367 1.01944 16.7899 1.20126 16.2207 1.39889V18.8538Z" fill="white"/>
<path d="M226.273 8.13356V5.29244H227.524C227.718 5.28691 227.912 5.31459 228.097 5.37428C228.232 5.42708 228.344 5.52663 228.413 5.65488C228.499 5.79687 228.538 5.96231 228.526 6.12798C228.513 6.29365 228.449 6.45121 228.342 6.57854C228.176 6.73374 227.961 6.82844 227.734 6.84745C227.818 6.88351 227.897 6.9307 227.968 6.98775C228.087 7.09724 228.189 7.22324 228.272 7.36189L228.763 8.13356H228.296L227.921 7.53727L227.653 7.15145L227.466 6.96437L227.29 6.88253H226.647V8.13356H226.273ZM226.647 6.55516H227.454C227.589 6.55876 227.723 6.53898 227.851 6.4967C227.943 6.46563 228.022 6.40367 228.073 6.32132C228.12 6.24783 228.144 6.16264 228.144 6.07579C228.146 6.01254 228.134 5.94957 228.11 5.8911C228.086 5.83262 228.05 5.77999 228.003 5.73672C227.866 5.64312 227.701 5.59787 227.536 5.60811H226.647V6.55516Z" fill="white"/>
<path d="M227.36 9.36111C226.837 9.36342 226.325 9.21041 225.889 8.92147C225.453 8.63254 225.112 8.22068 224.911 7.73806C224.709 7.25545 224.655 6.72378 224.755 6.21045C224.856 5.69712 225.107 5.2252 225.476 4.85449C225.845 4.48378 226.316 4.23096 226.829 4.12805C227.341 4.02514 227.873 4.07678 228.357 4.27643C228.84 4.47607 229.254 4.81474 229.545 5.24953C229.835 5.68431 229.991 6.19564 229.991 6.71875C229.988 7.41658 229.71 8.08515 229.218 8.57969C228.725 9.07423 228.058 9.35496 227.36 9.36111ZM227.36 4.3453C226.898 4.3453 226.446 4.48245 226.061 4.73939C225.676 4.99633 225.377 5.36154 225.2 5.78882C225.023 6.2161 224.976 6.68626 225.067 7.13986C225.157 7.59346 225.38 8.01012 225.707 8.33715C226.034 8.66418 226.45 8.88688 226.904 8.97711C227.358 9.06734 227.828 9.02102 228.255 8.84404C228.682 8.66705 229.047 8.36734 229.304 7.9828C229.561 7.59825 229.698 7.14616 229.698 6.68367C229.698 6.0635 229.452 5.46873 229.014 5.0302C228.575 4.59167 227.98 4.3453 227.36 4.3453Z" fill="white"/>
<path d="M117.691 32.6776C117.631 32.1276 117.601 31.5776 117.571 31.0476C117.541 30.5176 117.571 30.0476 117.501 29.6576C117.457 29.0264 117.374 28.3985 117.251 27.7776C117.127 27.1761 116.921 26.5941 116.641 26.0476C116.365 25.5365 115.999 25.0792 115.561 24.6976C115.076 24.2919 114.505 24.0013 113.891 23.8476V23.7776C115.14 23.3361 116.2 22.4781 116.891 21.3476C117.527 20.1842 117.845 18.8733 117.811 17.5476C117.816 16.6339 117.647 15.7276 117.311 14.8776C116.976 14.0658 116.48 13.3307 115.851 12.7176C115.191 12.0756 114.409 11.5723 113.551 11.2376C112.596 10.8621 111.577 10.6786 110.551 10.6976H97.171V21.2376L93.231 10.7076H87.641L80.161 30.4876L73.081 20.5476L82.781 10.7476H75.971L66.271 20.9976V10.7076H60.811V36.0776H66.271V27.5476L69.391 24.3776L77.281 36.0876H83.571L90.341 16.8376H90.421L93.551 25.9476H88.811L87.451 29.9476H94.951L97.061 36.0276H102.601V25.8276H108.061C108.597 25.7695 109.138 25.8201 109.654 25.9765C110.169 26.1329 110.648 26.3918 111.061 26.7376C111.739 27.5254 112.146 28.5107 112.221 29.5476C112.371 30.5476 112.471 31.5476 112.531 32.6776C112.606 33.822 112.818 34.9533 113.161 36.0476H119.021C118.609 35.4879 118.272 34.8759 118.021 34.2276C117.873 33.7197 117.763 33.2017 117.691 32.6776ZM111.421 21.0976C110.62 21.7154 109.619 22.0146 108.611 21.9376H102.611V14.9376H108.611C109.616 14.8597 110.615 15.1512 111.421 15.7576C111.772 16.0928 112.043 16.5018 112.216 16.955C112.389 17.4081 112.459 17.8941 112.421 18.3776C112.462 18.8765 112.394 19.3783 112.221 19.8481C112.049 20.3179 111.776 20.7443 111.421 21.0976Z" fill="white"/>
<path d="M193.691 30.0076C193.193 30.5287 192.589 30.9361 191.919 31.2019C191.249 31.4677 190.53 31.5856 189.811 31.5476C188.72 31.5864 187.638 31.3418 186.671 30.8376C185.833 30.387 185.119 29.738 184.591 28.9476C184.045 28.1341 183.649 27.23 183.421 26.2776C183.179 25.2958 183.055 24.2887 183.051 23.2776C183.051 22.2101 183.175 21.1463 183.421 20.1076C183.645 19.1383 184.041 18.2171 184.591 17.3876C185.113 16.5837 185.828 15.9236 186.671 15.4676C187.64 14.9681 188.721 14.7237 189.811 14.7576C191.108 14.7558 192.368 15.1967 193.381 16.0076C193.864 16.3913 194.273 16.8587 194.591 17.3876C194.923 17.9046 195.138 18.4883 195.221 19.0976H200.511C200.377 17.755 199.975 16.4528 199.331 15.2676C198.721 14.1957 197.913 13.249 196.951 12.4776C195.969 11.7181 194.863 11.136 193.681 10.7576C192.431 10.3529 191.124 10.1503 189.811 10.1576C188.046 10.1276 186.295 10.4683 184.671 11.1576C183.2 11.7829 181.882 12.7213 180.811 13.9076C180.661 14.0776 180.551 14.2876 180.411 14.4576V10.7076H175.301V27.3576H175.221L164.861 10.7076H159.441V27.4476L153.181 10.7076H146.861L141.081 27.8076H141.011L136.811 10.7076H131.661L127.351 27.5976H127.281L122.011 10.7076H116.551L124.661 36.0776H129.881L134.131 18.6376H134.211L138.551 36.0776H143.641L150.231 16.5476L153.711 25.8576H148.901L147.521 29.9576H155.241L157.541 36.0476H164.541V18.9076H164.611L174.941 36.0776H180.401V31.8176C180.541 31.9876 180.651 32.1976 180.801 32.3576C181.863 33.5401 183.175 34.4724 184.641 35.0876C186.265 35.7772 188.016 36.1179 189.781 36.0876C191.211 36.0986 192.632 35.8617 193.981 35.3876C195.215 34.9545 196.348 34.274 197.311 33.3876C198.278 32.4801 199.059 31.3932 199.611 30.1876C200.212 28.858 200.574 27.4329 200.681 25.9776H195.411C195.272 27.4675 194.671 28.8766 193.691 30.0076Z" fill="white"/>
<path d="M217.141 20.2275H207.091V10.7075H201.631V36.0875H207.091V24.8275H217.141V36.0875H222.591V10.7075H217.141V20.2275Z" fill="white"/>
<path d="M229.991 10.7075H224.531V36.0875H229.991V10.7075Z" fill="white"/>
</svg>
