<svg width="669" height="354" viewBox="0 0 669 354" fill="none" xmlns="http://www.w3.org/2000/svg">
<path d="M416.637 163.968L416.954 163.581C418.607 161.33 420.19 159.009 421.667 156.547C421.878 156.231 422.089 155.914 422.265 155.598C423.601 153.347 424.867 151.061 426.028 148.563C426.345 147.965 426.626 147.403 426.907 146.77C427.962 144.624 428.947 142.479 429.791 140.263C430.178 139.349 430.46 138.434 430.811 137.484C431.55 135.515 432.253 133.51 432.851 131.47C433.238 130.169 433.555 128.868 433.871 127.531C434.188 126.194 434.786 124.014 435.173 122.22C435.559 120.426 435.735 118.527 435.981 116.663C436.228 114.799 436.439 113.92 436.579 112.548C436.896 109.031 437.072 105.866 437.072 102.489C437.074 99.0239 436.898 95.5608 436.544 92.1136C436.544 90.3551 436.052 88.5965 435.77 86.9786C435.489 85.3608 435.348 83.7077 435.032 82.125C434.575 79.7685 433.906 77.4472 433.273 75.0908C433.062 74.2467 432.886 73.3322 432.605 72.4529C431.761 69.7448 430.811 67.1069 429.756 64.4691C429.756 64.047 429.44 63.6602 429.264 63.2733C428.068 60.3892 426.731 57.5404 425.289 54.7618V54.4805C420.641 46.0484 414.854 38.2965 408.091 31.4434L357.69 83.6374L411.045 170.862C413.026 168.662 414.893 166.361 416.637 163.968Z" fill="white"/>
<path d="M324.979 116.558L300.148 142.585V199.21C302.681 200.16 305.248 200.934 307.886 201.637L309.117 201.989C311.438 202.552 313.76 203.114 316.151 203.536L319.668 204.064C321.462 204.345 323.186 204.627 325.05 204.803C328.215 205.084 331.345 205.295 334.581 205.295C337.817 205.295 340.912 205.084 344.007 204.803C345.554 204.803 347.102 204.416 348.614 204.205C350.127 203.994 351.393 203.853 352.8 203.572C354.84 203.22 356.844 202.763 358.849 202.27L360.819 201.778C363.175 201.11 365.496 200.477 367.853 199.668L324.979 116.558Z" fill="white"/>
<path d="M252.071 41.9578C250.488 44.1032 249.011 46.2838 247.604 48.5348C243.743 54.7586 240.548 61.3721 238.073 68.2658C237.791 69.0396 237.475 69.7782 237.229 70.5871C236.701 72.1698 236.244 73.7877 235.822 75.4055C235.4 77.0234 235.048 78.3248 234.696 79.8019C234.345 81.2791 234.063 82.6156 233.817 84.0225C233.571 85.4293 233.184 87.821 232.903 89.7906C232.903 90.916 232.621 92.0063 232.516 93.3077C231.859 99.645 231.859 106.033 232.516 112.37C232.516 113.496 232.797 114.621 232.903 115.888C233.184 117.822 233.465 119.756 233.817 121.656C234.169 123.555 234.345 124.469 234.696 125.841C235.048 127.213 235.4 128.795 235.822 130.273C236.244 131.75 236.701 133.508 237.229 135.091C237.475 135.865 237.791 136.603 238.073 137.377C240.541 144.285 243.736 150.911 247.604 157.143C249.046 159.394 250.523 161.575 252.106 163.685L252.071 41.9578Z" fill="white"/>
<path d="M300.148 83.743L367.431 5.66297C365.25 4.92438 362.999 4.2913 360.748 3.69339C360.01 3.48236 359.236 3.27133 358.462 3.13065C356.598 2.63825 354.664 2.2162 352.729 1.89966C350.795 1.58312 349.81 1.44243 348.298 1.19623C346.785 0.950035 345.414 0.809351 343.937 0.668666C340.841 0.387297 337.746 0.17627 334.511 0.17627C331.275 0.17627 328.145 0.387297 324.979 0.668666C323.186 0.668666 321.462 1.12589 319.598 1.37209L316.081 1.89966C313.725 2.35688 311.403 2.88445 309.047 3.48236L307.886 3.69339C305.248 4.39681 302.681 5.20575 300.148 6.08503V83.743Z" fill="white"/>
<g filter="url(#filter0_d_289_445)">
<path fill-rule="evenodd" clip-rule="evenodd" d="M650.662 242.2C652.118 243.164 653.827 243.675 655.573 243.667C657.903 243.647 660.131 242.71 661.774 241.059C663.418 239.408 664.345 237.176 664.355 234.846C664.355 233.1 663.837 231.393 662.866 229.942C661.895 228.49 660.515 227.36 658.901 226.693C657.287 226.027 655.511 225.854 653.799 226.198C652.087 226.542 650.515 227.386 649.283 228.623C648.051 229.861 647.214 231.436 646.878 233.15C646.542 234.863 646.723 236.638 647.396 238.249C648.07 239.86 649.207 241.235 650.662 242.2ZM651.237 228.239C652.52 227.381 654.03 226.923 655.573 226.923C657.644 226.923 659.629 227.746 661.093 229.21C662.557 230.674 663.38 232.659 663.38 234.729C663.38 236.273 662.922 237.782 662.064 239.066C661.206 240.35 659.987 241.35 658.561 241.941C657.134 242.532 655.565 242.687 654.051 242.385C652.536 242.084 651.145 241.341 650.054 240.249C648.962 239.157 648.219 237.766 647.917 236.252C647.616 234.738 647.771 233.168 648.362 231.742C648.952 230.316 649.953 229.097 651.237 228.239ZM651.943 230.084V239.569H653.192V235.393H655.339L655.924 235.666L656.549 236.29L657.446 237.578L658.695 239.569H660.257L658.617 236.993C658.341 236.53 657.999 236.109 657.603 235.744C657.365 235.553 657.102 235.396 656.822 235.276C657.58 235.212 658.295 234.896 658.852 234.378C659.208 233.953 659.422 233.427 659.464 232.874C659.506 232.321 659.374 231.768 659.086 231.294C658.858 230.866 658.484 230.534 658.032 230.358C657.415 230.158 656.768 230.066 656.119 230.084H651.943ZM655.885 234.3H653.192V231.138H656.158C656.712 231.104 657.261 231.255 657.72 231.568C657.874 231.712 657.995 231.888 658.076 232.083C658.157 232.278 658.195 232.488 658.188 232.7C658.19 232.989 658.108 233.274 657.954 233.519C657.782 233.794 657.52 234.001 657.212 234.105C656.784 234.246 656.336 234.312 655.885 234.3ZM226.289 329.565L226.289 329.565L226.277 329.339C226.233 328.577 226.222 327.846 226.211 327.152C226.193 325.961 226.176 324.875 226.003 323.914C225.832 321.45 225.506 318.999 225.028 316.576C224.542 314.228 223.741 311.957 222.647 309.824C221.569 307.829 220.141 306.044 218.432 304.555C216.537 302.971 214.309 301.837 211.913 301.237V300.964C216.79 299.241 220.924 295.892 223.623 291.479C226.106 286.939 227.345 281.822 227.213 276.648C227.234 273.081 226.571 269.544 225.262 266.227C223.956 263.058 222.017 260.189 219.563 257.796C216.987 255.29 213.935 253.326 210.586 252.02C206.86 250.554 202.881 249.838 198.877 249.912H146.655V291.05L131.277 249.951H109.459L80.264 327.153L52.6305 288.357L90.49 250.107H63.9103L26.0508 290.113V249.951H4.74023V348.971H26.0508V315.678L38.2283 303.306L69.0233 349.01H93.5734L119.997 273.877H120.309L132.526 309.433H114.025L108.717 325.046H137.99L146.225 348.776H167.848V308.965H189.159C191.249 308.738 193.364 308.936 195.376 309.546C197.388 310.156 199.256 311.167 200.868 312.517C203.516 315.591 205.103 319.437 205.395 323.484C205.981 327.387 206.371 331.29 206.605 335.701C206.9 340.167 207.725 344.583 209.064 348.854H231.936C230.326 346.669 229.014 344.281 228.033 341.751C227.456 339.768 227.026 337.746 226.745 335.701C226.519 333.632 226.402 331.564 226.289 329.565ZM202.273 290.504C199.148 292.915 195.241 294.083 191.305 293.782H167.887V266.461H191.305C195.229 266.157 199.129 267.295 202.273 269.661C203.641 270.97 204.701 272.566 205.376 274.335C206.051 276.103 206.325 278 206.176 279.887C206.337 281.834 206.071 283.793 205.397 285.627C204.723 287.46 203.657 289.125 202.273 290.504ZM516.462 329.941C519.076 328.903 521.435 327.313 523.377 325.279C527.201 320.865 529.549 315.365 530.09 309.55H550.659C550.243 315.23 548.83 320.793 546.483 325.982C544.328 330.688 541.28 334.93 537.506 338.472C533.75 341.931 529.327 344.588 524.509 346.278C519.243 348.128 513.697 349.053 508.116 349.01C501.229 349.128 494.395 347.798 488.055 345.107C482.333 342.706 477.214 339.067 473.067 334.452C472.737 334.099 472.456 333.685 472.176 333.272L472.176 333.271C471.96 332.952 471.744 332.633 471.506 332.344V348.971H450.195L409.877 281.956H409.604V348.854H382.282L373.305 325.084H343.174L348.56 309.082H367.334L353.751 272.745L328.03 348.971H308.164L291.224 280.902H290.912L274.324 348.971H253.95L222.297 249.951H243.607L264.176 315.873H264.45L281.272 249.951H301.372L317.765 316.693H318.038L340.598 249.951H365.265L389.698 315.288V249.951H410.852L451.288 314.936H451.6V249.951H471.545V264.587C471.796 264.282 472.022 263.944 472.25 263.604C472.519 263.203 472.79 262.799 473.106 262.44C477.288 257.811 482.429 254.148 488.172 251.707C494.512 249.017 501.347 247.687 508.233 247.804C513.361 247.776 518.46 248.566 523.338 250.146C527.951 251.623 532.27 253.895 536.101 256.859C539.857 259.87 543.009 263.565 545.39 267.749C547.906 272.375 549.472 277.457 549.996 282.697H529.349C529.027 280.319 528.188 278.041 526.89 276.023C525.651 273.959 524.052 272.134 522.167 270.637C518.213 267.472 513.298 265.751 508.233 265.758C503.979 265.626 499.761 266.58 495.978 268.529C492.687 270.309 489.896 272.885 487.859 276.023C485.715 279.261 484.169 282.856 483.293 286.639C482.333 290.693 481.848 294.846 481.849 299.012C481.864 302.958 482.349 306.889 483.293 310.721C484.184 314.438 485.731 317.967 487.859 321.142C489.922 324.227 492.71 326.76 495.978 328.519C499.755 330.487 503.977 331.442 508.233 331.29C511.041 331.438 513.849 330.978 516.462 329.941ZM614.903 287.108H575.678V249.951H554.367V349.01H575.678V305.062H614.903V349.01H636.175V249.951H614.903V287.108ZM639.845 249.951H661.155V349.01H639.845V249.951Z" fill="white"/>
</g>
<defs>
<filter id="filter0_d_289_445" x="0.740234" y="222.026" width="667.615" height="130.991" filterUnits="userSpaceOnUse" color-interpolation-filters="sRGB">
<feFlood flood-opacity="0" result="BackgroundImageFix"/>
<feColorMatrix in="SourceAlpha" type="matrix" values="0 0 0 0 0 0 0 0 0 0 0 0 0 0 0 0 0 0 127 0" result="hardAlpha"/>
<feOffset/>
<feGaussianBlur stdDeviation="2"/>
<feComposite in2="hardAlpha" operator="out"/>
<feColorMatrix type="matrix" values="0 0 0 0 0 0 0 0 0 0 0 0 0 0 0 0 0 0 0.25 0"/>
<feBlend mode="normal" in2="BackgroundImageFix" result="effect1_dropShadow_289_445"/>
<feBlend mode="normal" in="SourceGraphic" in2="effect1_dropShadow_289_445" result="shape"/>
</filter>
</defs>
</svg>
