<svg width="1663" height="311" viewBox="0 0 1663 311" fill="none" xmlns="http://www.w3.org/2000/svg">
<path fill-rule="evenodd" clip-rule="evenodd" d="M1628.38 40.7501C1632.04 43.1807 1636.35 44.4679 1640.75 44.4484C1646.62 44.3967 1652.24 42.0351 1656.38 37.8749C1660.52 33.7147 1662.86 28.0906 1662.88 22.2202C1662.88 17.8197 1661.57 13.5182 1659.13 9.8607C1656.68 6.20319 1653.2 3.35422 1649.14 1.67475C1645.07 -0.00471582 1640.59 -0.439122 1636.28 0.426559C1631.97 1.29224 1628.01 3.41905 1624.9 6.53757C1621.8 9.65608 1619.69 13.6259 1618.84 17.9443C1617.99 22.2626 1618.45 26.735 1620.15 30.7949C1621.84 34.8549 1624.71 38.3195 1628.38 40.7501ZM1629.82 5.5693C1633.06 3.40783 1636.86 2.25413 1640.75 2.25413C1645.97 2.25413 1650.97 4.32662 1654.66 8.01564C1658.35 11.7047 1660.42 16.7081 1660.42 21.9251C1660.42 25.8157 1659.27 29.6188 1657.11 32.8537C1654.95 36.0886 1651.87 38.6098 1648.28 40.0987C1644.68 41.5875 1640.73 41.9771 1636.91 41.2181C1633.1 40.4591 1629.59 38.5857 1626.84 35.8346C1624.09 33.0836 1622.22 29.5785 1621.46 25.7627C1620.7 21.9469 1621.09 17.9918 1622.58 14.3974C1624.07 10.803 1626.59 7.73078 1629.82 5.5693ZM1631.6 10.2205V34.1207H1634.75V23.5967H1640.16L1641.63 24.2852L1643.21 25.8589L1645.47 29.1046L1648.62 34.1207H1652.55L1648.42 27.6292C1647.72 26.4629 1646.86 25.4029 1645.86 24.4819C1645.26 24.002 1644.6 23.605 1643.9 23.3017C1645.81 23.1417 1647.61 22.3451 1649.01 21.0395C1649.91 19.9684 1650.45 18.6429 1650.55 17.2493C1650.66 15.8556 1650.33 14.4638 1649.6 13.2694C1649.03 12.1905 1648.08 11.3531 1646.94 10.9089C1645.39 10.4068 1643.76 10.174 1642.13 10.2205H1631.6ZM1641.54 20.8428H1634.75V12.876H1642.22C1643.62 12.7898 1645 13.1705 1646.16 13.9579C1646.55 14.3219 1646.85 14.7646 1647.06 15.2565C1647.26 15.7484 1647.36 16.2782 1647.34 16.8102C1647.34 17.5409 1647.14 18.2574 1646.75 18.8757C1646.31 19.5684 1645.65 20.0897 1644.88 20.351C1643.8 20.7067 1642.67 20.8731 1641.54 20.8428ZM560.122 274.197C559.553 268.985 559.259 263.773 558.974 258.737L558.942 258.165C558.833 256.245 558.804 254.404 558.777 252.654C558.731 249.653 558.688 246.917 558.253 244.494C557.821 238.285 557 232.109 555.794 226.003C554.571 220.087 552.553 214.363 549.795 208.988C547.08 203.96 543.481 199.463 539.172 195.71C534.399 191.719 528.783 188.861 522.747 187.35V186.661C535.035 182.319 545.454 173.88 552.254 162.761C558.512 151.319 561.634 138.424 561.302 125.386C561.354 116.399 559.684 107.485 556.384 99.1255C553.094 91.1404 548.207 83.9111 542.025 77.8809C535.533 71.5658 527.841 66.6161 519.403 63.3244C510.013 59.6307 499.986 57.8258 489.897 58.0132H358.298V161.679L319.546 58.1116H264.566L190.996 252.657L121.361 154.893L216.765 58.505H149.786L54.3814 159.319V58.1116H0.679688V307.638H54.3814V223.741L85.0681 192.563L162.67 307.736H224.535L291.121 118.403H291.908L322.693 208.004H276.073L262.697 247.346H336.463L357.216 307.146H411.705V206.824H465.406C470.674 206.252 476.003 206.75 481.073 208.288C486.143 209.826 490.851 212.372 494.913 215.774C501.585 223.523 505.586 233.213 506.322 243.412C507.797 253.248 508.781 263.083 509.371 274.197C510.113 285.453 512.193 296.579 515.567 307.343H573.203C569.146 301.838 565.839 295.818 563.368 289.442C561.914 284.447 560.829 279.351 560.122 274.197ZM498.453 160.302C490.579 166.378 480.733 169.321 470.816 168.564H411.803V99.7157H470.816C480.703 98.9488 490.53 101.817 498.453 107.781C501.901 111.078 504.573 115.1 506.274 119.557C507.975 124.014 508.663 128.794 508.289 133.55C508.695 138.456 508.025 143.392 506.326 148.012C504.627 152.633 501.94 156.827 498.453 160.302ZM1290.2 261.999C1296.78 259.384 1302.73 255.377 1307.62 250.252C1317.26 239.129 1323.17 225.269 1324.54 210.615H1376.37C1375.32 224.929 1371.76 238.946 1365.85 252.023C1360.42 263.881 1352.73 274.57 1343.23 283.496C1333.76 292.214 1322.62 298.908 1310.47 303.167C1297.2 307.831 1283.23 310.16 1269.16 310.052C1251.81 310.35 1234.59 306.999 1218.61 300.217C1204.19 294.166 1191.29 284.996 1180.84 273.366C1180.01 272.478 1179.3 271.434 1178.6 270.392C1178.05 269.587 1177.51 268.783 1176.91 268.054V309.954H1123.21L1021.61 141.078H1020.92V309.659H952.068L929.447 249.761H853.517L867.09 209.435H914.398L880.171 117.867L815.355 309.954H765.292L722.606 138.423H721.82L680.019 309.954H628.677L548.912 60.4275H602.613L654.446 226.549H655.135L697.526 60.4275H748.179L789.488 228.614H790.176L847.025 60.4275H909.185L970.756 225.073V60.4275H1024.06L1125.96 224.188H1126.75V60.4275H1177.01V97.3105C1177.64 96.5422 1178.21 95.6907 1178.78 94.8326C1179.46 93.8233 1180.14 92.8047 1180.94 91.901C1191.48 80.2336 1204.43 71.0035 1218.9 64.8534C1234.88 58.0736 1252.11 54.7229 1269.46 55.0179C1282.38 54.9463 1295.23 56.9385 1307.52 60.9192C1319.15 64.6413 1330.03 70.3664 1339.68 77.8362C1349.15 85.4237 1357.09 94.7347 1363.09 105.277C1369.43 116.935 1373.38 129.742 1374.7 142.947H1322.67C1321.86 136.955 1319.74 131.214 1316.47 126.128C1313.35 120.927 1309.32 116.329 1304.57 112.555C1294.61 104.58 1282.22 100.243 1269.46 100.261C1258.74 99.9281 1248.11 102.331 1238.58 107.244C1230.28 111.729 1223.25 118.222 1218.12 126.128C1212.72 134.287 1208.82 143.348 1206.61 152.881C1204.19 163.097 1202.97 173.561 1202.97 184.059C1203.01 194.004 1204.23 203.909 1206.61 213.566C1208.86 222.933 1212.75 231.826 1218.12 239.827C1223.32 247.601 1230.34 253.984 1238.58 258.416C1248.09 263.375 1258.73 265.781 1269.46 265.399C1276.54 265.773 1283.61 264.613 1290.2 261.999ZM1538.26 151.634H1439.42V58H1385.71V307.625H1439.42V196.877H1538.26V307.625H1591.87V58H1538.26V151.634ZM1601.12 58H1654.82V307.625H1601.12V58Z" fill="black" fill-opacity="0.03"/>
</svg>
